<?xml version="1.0" encoding="UTF-8"?>
<svg id="Layer_2" data-name="Layer 2" xmlns="http://www.w3.org/2000/svg" viewBox="0 0 710.18 153.4">
  <defs>
    <style>
      .cls-1 {
        fill: #231f20;
      }
    </style>
  </defs>
  <g id="Layer_1-2" data-name="Layer 1">
    <g>
      <g>
        <path class="cls-1" d="M91.07,35.58h0c4.42,0,8.22,3.11,9.1,7.44l.64,3.15c4.8-8.11,12.57-12.57,21.02-12.57.15,0,.31,0,.46,0,5.72.06,9.86,5.51,8.74,11.11l-.35,1.75c-.92,4.63-5.22,7.63-9.92,7.25-.71-.06-1.41-.09-2.07-.09-11.09,0-17.54,7.78-17.54,21.35v34.07c0,5.13-4.16,9.29-9.29,9.29h-.78c-5.13,0-9.29-4.16-9.29-9.29V44.86c0-5.13,4.16-9.29,9.29-9.29Z"/>
        <path class="cls-1" d="M234.04,12.52c0-5.54,4.49-10.04,10.04-10.04h19.42c40.04,0,64.2,23.83,64.2,57.92,0,34.58-25.81,57.91-64.2,57.91h-19.42c-5.54,0-10.04-4.49-10.04-10.04V12.52ZM264.99,99.45c25.65,0,42.2-14.4,42.2-39.05,0-24.66-16.22-39.05-42.2-39.05h-10.76s0,78.1,0,78.1h10.76Z"/>
        <path class="cls-1" d="M434.36,83.23v-38.38c0-5.12,4.15-9.28,9.28-9.28h.81c5.12,0,9.28,4.15,9.28,9.28v36.06c0,14.73,6.12,21.85,17.38,21.85,12.74,0,21.18-10.92,21.18-31.61v-26.3c0-5.12,4.15-9.28,9.28-9.28h.81c5.12,0,9.28,4.15,9.28,9.28v64.19c0,5.12-4.15,9.28-9.28,9.28h0c-4.42,0-8.23-3.12-9.1-7.46l-.83-4.13c-4.14,7.78-14.56,13.57-25.15,13.57-22.17,0-32.93-13.4-32.93-37.07Z"/>
        <path class="cls-1" d="M521.5,118.31c0-13.73,8.77-25.65,18.2-30.28-5.96-3.97-12.41-13.24-12.41-22.84,0-18.2,15.72-31.61,33.76-31.61h31.22c3.59,0,6.51,2.91,6.51,6.51h0c0,3.06-2.13,5.71-5.12,6.36l-7.79,1.7c3.81,3.48,8.11,9.6,8.11,18.7,0,9.6-6.29,17.87-12.41,21.18,9.43,4.63,18.2,16.55,18.2,30.28,0,20.35-17.21,35.08-38.72,35.08-21.51,0-39.55-14.73-39.55-35.08ZM581.74,116.99c0-11.09-9.26-19.69-20.68-19.69-11.42,0-21.51,8.61-21.51,19.69,0,10.92,9.43,19.53,21.51,19.53,12.08,0,20.68-8.61,20.68-19.53ZM576.44,65.86c0-8.27-6.12-15.39-15.39-15.39-8.94,0-16.21,7.12-16.21,15.39,0,8.44,6.95,15.22,16.21,15.22,9.6,0,15.39-6.79,15.39-15.22Z"/>
        <path class="cls-1" d="M620.66,0h0c5.35,0,9.68,4.33,9.68,9.68v37.48c4.14-7.61,14.4-13.57,24.82-13.57,21.35,0,32.6,12.57,32.6,35.74v39.3c0,5.35-4.33,9.68-9.68,9.68h0c-5.35,0-9.68-4.33-9.68-9.68v-34.67c0-14.73-5.96-22.84-17.37-22.84-11.25,0-20.69,11.09-20.69,33.43v24.08c0,5.35-4.33,9.68-9.68,9.68h0c-5.35,0-9.68-4.33-9.68-9.68V9.68c0-5.35,4.33-9.68,9.68-9.68Z"/>
        <path class="cls-1" d="M36.32,2.48H10.1C4.52,2.48,0,7,0,12.58v95.64c0,5.58,4.52,10.1,10.09,10.1,5.58,0,10.1-4.52,10.1-10.1v-33.09s16.13,0,16.13,0c20.06,0,36.32-16.26,36.32-36.32,0-20.06-16.26-36.32-36.32-36.32ZM36.32,56.26h-16.13s0-34.92,0-34.92h16.13c9.64,0,17.46,7.82,17.46,17.46,0,9.64-7.82,17.46-17.46,17.46Z"/>
        <path class="cls-1" d="M175.56,33.59c-23.94,0-43.35,19.41-43.35,43.35,0,23.94,19.41,43.35,43.35,43.35,23.94,0,43.35-19.41,43.35-43.35s-19.41-43.35-43.35-43.35ZM175.56,102.76c-14.26,0-25.81-11.56-25.81-25.81,0-14.26,11.56-25.81,25.81-25.81,14.26,0,25.81,11.56,25.81,25.81s-11.56,25.81-25.81,25.81Z"/>
        <path class="cls-1" d="M379.91,33.59c-23.94,0-43.35,19.41-43.35,43.35,0,23.94,19.41,43.35,43.35,43.35,23.94,0,43.35-19.41,43.35-43.35,0-23.94-19.41-43.35-43.35-43.35ZM379.91,102.76c-14.26,0-25.81-11.56-25.81-25.81,0-14.26,11.56-25.81,25.81-25.81,14.26,0,25.81,11.56,25.81,25.81,0,14.26-11.56,25.81-25.81,25.81Z"/>
      </g>
      <path class="cls-1" d="M676.68,16.8c0-9.5,6.83-16.8,16.7-16.8s16.8,7.29,16.8,16.8-7.11,16.8-16.8,16.8-16.7-7.29-16.7-16.8ZM706.95,16.8c0-8.03-6-13.93-13.57-13.93s-13.47,5.81-13.47,13.93,6,13.93,13.47,13.93,13.57-5.91,13.57-13.93ZM700.22,25.38h-3.69l-3.51-5.54h-2.03v5.54h-3.23V7.84h6.46c3.78,0,6.46,2.68,6.46,6.09,0,2.77-1.66,4.62-4.34,5.54l3.88,5.91ZM690.99,10.71v6.27h3.23c2.12,0,3.23-1.38,3.23-2.95,0-1.75-1.11-3.32-3.23-3.32h-3.23Z"/>
    </g>
  </g>
</svg>
